<?xml version="1.0" standalone="no"?>
<!DOCTYPE svg PUBLIC "-//W3C//DTD SVG 20010904//EN"
 "http://www.w3.org/TR/2001/REC-SVG-20010904/DTD/svg10.dtd">
<svg version="1.0" xmlns="http://www.w3.org/2000/svg"
 width="891.000000pt" height="412.000000pt" viewBox="0 0 891.000000 412.000000"
 preserveAspectRatio="xMidYMid meet">
<metadata>
Created by potrace 1.16, written by Peter Selinger 2001-2019
</metadata>
<g transform="translate(0.000000,412.000000) scale(0.100000,-0.100000)"
fill="#000000" stroke="none">
<path d="M860 3898 c-68 -35 -93 -89 -88 -194 5 -99 26 -140 86 -171 93 -47
205 -3 227 90 7 26 6 27 -33 27 -32 0 -42 -4 -47 -20 -10 -32 -34 -50 -66 -50
-63 0 -89 39 -89 135 0 94 26 135 85 135 38 0 62 -16 69 -45 6 -22 12 -25 47
-25 39 0 41 1 35 26 -24 95 -134 139 -226 92z"/>
<path d="M2029 3897 c-62 -32 -89 -88 -89 -183 0 -96 27 -150 94 -183 44 -22
52 -23 100 -12 92 21 136 86 136 201 0 83 -35 151 -92 179 -57 27 -94 27 -149
-2z m113 -58 c27 -14 48 -69 48 -124 0 -114 -79 -175 -141 -109 -21 23 -24 35
-24 109 0 74 3 86 24 109 26 28 59 33 93 15z"/>
<path d="M2473 3909 c-49 -14 -89 -61 -103 -120 -16 -65 -6 -150 22 -200 53
-95 204 -101 265 -10 36 53 31 71 -17 71 -29 0 -40 -4 -40 -15 0 -8 -9 -24
-20 -35 -28 -28 -81 -26 -109 4 -20 21 -24 36 -25 105 -1 66 3 84 20 108 36
48 117 41 130 -12 5 -21 12 -25 45 -25 31 0 39 4 39 19 0 26 -42 84 -71 98
-37 18 -99 23 -136 12z"/>
<path d="M2877 3906 c-81 -30 -112 -92 -105 -210 6 -91 28 -133 86 -163 94
-47 204 -4 227 90 7 26 6 27 -34 27 -35 0 -41 -3 -47 -25 -7 -29 -31 -45 -69
-45 -41 0 -63 17 -75 58 -21 77 -5 183 30 202 45 24 104 6 114 -35 6 -22 12
-25 47 -25 40 0 41 1 34 28 -21 85 -118 131 -208 98z"/>
<path d="M4156 3910 c-67 -21 -107 -85 -112 -180 -3 -81 15 -135 59 -176 82
-76 233 -38 253 64 6 32 6 32 -34 32 -34 0 -41 -4 -46 -25 -13 -51 -94 -60
-128 -14 -28 38 -29 170 -1 207 35 47 116 39 129 -13 5 -21 12 -25 45 -25 31
0 39 4 39 19 0 26 -42 84 -71 98 -36 17 -99 24 -133 13z"/>
<path d="M4934 3901 c-53 -24 -82 -65 -96 -136 -31 -155 71 -280 201 -245 97
26 143 115 126 240 -17 122 -127 190 -231 141z m101 -57 c27 -11 45 -59 46
-127 2 -75 -15 -118 -52 -131 -63 -22 -107 22 -112 112 -7 113 42 175 118 146z"/>
<path d="M381 3715 l1 -195 102 0 c112 0 161 16 184 60 19 37 9 101 -21 123
l-24 19 23 23 c28 28 32 79 8 113 -28 41 -66 52 -174 52 l-101 0 2 -195z"/>
<path d="M1190 3715 l0 -195 131 0 130 0 -3 33 -3 32 -88 0 -87 0 0 53 0 52
75 0 75 0 0 30 0 30 -75 0 -75 0 0 50 0 50 90 0 90 0 0 30 0 30 -130 0 -130 0
0 -195z"/>
<path d="M1550 3715 l0 -195 40 0 40 0 0 64 c0 63 0 64 31 70 17 3 45 6 61 6
93 0 153 97 111 180 -28 54 -71 70 -185 70 l-98 0 0 -195z m199 111 c16 -17
18 -73 2 -89 -6 -6 -35 -12 -66 -15 l-55 -4 0 59 c0 33 2 62 5 64 10 10 100
-2 114 -15z"/>
<path d="M3181 3715 l2 -195 43 0 43 0 72 120 c39 66 74 120 78 120 3 0 5 -54
5 -120 l-2 -120 44 0 44 0 0 195 0 195 -43 0 -43 0 -74 -124 -75 -123 -3 123
-3 124 -45 0 -45 0 2 -195z"/>
<path d="M3620 3714 l0 -195 43 3 42 3 75 124 75 124 3 -126 3 -127 39 0 40 0
0 195 0 195 -42 0 -43 0 -75 -128 -75 -127 -3 128 -3 127 -39 0 -40 0 0 -196z"/>
<path d="M4460 3715 l0 -195 40 0 40 0 0 80 c0 78 1 80 24 80 19 0 34 -16 75
-80 l51 -80 45 0 c25 0 45 3 45 6 0 3 -13 24 -28 47 -16 23 -45 67 -64 97
l-35 56 49 74 c78 119 76 110 19 110 l-49 0 -46 -79 c-62 -105 -80 -104 -84 2
l-3 77 -39 0 -40 0 0 -195z"/>
<path d="M5270 3715 l0 -195 131 0 130 0 -3 33 -3 32 -87 0 -88 -1 0 53 0 53
80 0 80 0 0 30 0 30 -80 0 -80 0 0 50 0 50 90 0 90 0 0 30 0 30 -130 0 -130 0
0 -195z"/>
<path d="M390 3050 c0 -134 34 -170 160 -170 l70 0 0 -72 0 -73 40 0 40 -1 0
198 0 198 -40 0 -40 0 0 -89 c0 -84 -1 -89 -22 -95 -40 -10 -83 -6 -106 10
-20 13 -22 24 -22 95 l0 79 -40 0 -40 0 0 -80z"/>
<path d="M820 2933 l0 -198 130 -2 130 -1 0 34 0 34 -90 0 -90 0 0 53 0 54 73
-1 72 -1 3 33 3 32 -75 0 -76 0 0 45 0 45 90 0 90 0 0 35 0 35 -130 0 -130 0
0 -197z"/>
<path d="M1180 2932 l0 -198 38 1 37 1 -2 139 c-3 158 -5 159 61 -27 32 -90
42 -107 62 -111 13 -2 28 1 34 7 5 7 27 63 50 125 22 62 43 119 48 126 4 8 7
-48 7 -123 l0 -137 35 0 35 0 3 198 2 197 -53 0 -53 0 -49 -140 c-27 -77 -51
-138 -53 -135 -2 2 -26 64 -52 137 l-47 133 -51 3 -52 3 0 -199z"/>
<path d="M1712 2933 l3 -198 35 0 35 0 3 163 2 162 75 0 c71 0 75 -1 76 -22 0
-13 1 -86 2 -163 l2 -140 40 0 40 0 3 198 2 197 -160 0 -160 0 2 -197z"/>
<path d="M2140 2935 c0 -149 3 -195 13 -196 6 0 20 -2 31 -4 34 -6 45 6 118
132 l73 125 5 -129 5 -129 38 0 37 0 0 198 0 198 -39 0 -40 0 -78 -130 -78
-130 -3 130 -3 130 -39 0 -40 0 0 -195z"/>
<path d="M2650 3112 c-56 -30 -84 -92 -85 -182 0 -61 4 -83 24 -116 29 -52 84
-84 143 -84 138 0 214 184 135 324 -40 71 -141 98 -217 58z m138 -78 c23 -26
26 -44 23 -129 -2 -71 -26 -100 -81 -100 -69 0 -88 42 -81 178 0 17 13 41 31
59 36 35 71 33 108 -8z"/>
<path d="M3000 2933 l0 -198 40 0 40 0 0 83 0 82 80 0 80 0 0 -82 0 -83 40 0
40 0 0 198 0 197 -40 0 -40 0 0 -80 0 -80 -80 0 -80 0 0 80 0 80 -40 0 -40 0
0 -197z"/>
<path d="M3485 2948 c-37 -101 -68 -189 -69 -197 -1 -14 16 -17 65 -12 9 0 21
17 28 40 l11 39 67 -4 c36 -2 69 -7 72 -10 3 -3 11 -20 17 -37 10 -29 15 -32
52 -33 23 -1 42 2 42 5 0 3 -32 93 -72 199 l-71 192 -37 0 -37 0 -68 -182z"/>
<path d="M3790 3095 l0 -35 60 0 60 0 2 -162 3 -163 35 0 35 0 3 163 2 162 60
0 60 0 0 35 0 35 -160 0 -160 0 0 -35z"/>
<path d="M4200 2933 l0 -198 40 0 40 0 0 83 0 82 80 0 80 0 0 -82 0 -83 40 0
40 0 0 198 0 197 -40 0 -40 0 0 -80 0 -80 -80 0 -80 0 0 80 0 80 -40 0 -40 0
0 -197z"/>
<path d="M4714 3116 c-66 -29 -100 -108 -91 -214 8 -105 71 -172 161 -172 117
0 189 106 166 246 -11 65 -31 98 -80 132 -38 25 -107 29 -156 8z m131 -77 c17
-17 20 -33 20 -108 0 -73 -3 -93 -19 -110 -28 -31 -86 -28 -117 5 -21 22 -24
35 -24 98 0 42 6 84 14 98 26 50 85 58 126 17z"/>
<path d="M5060 2933 l0 -198 130 -2 130 -1 0 34 0 34 -90 0 -90 0 0 54 0 54
65 -5 c73 -5 97 5 91 41 -3 19 -10 21 -79 24 l-77 3 0 44 0 45 90 0 90 0 0 35
0 35 -130 0 -130 0 0 -197z"/>
<path d="M461 2340 c-5 -3 -11 -52 -14 -110 -9 -143 -34 -220 -73 -220 -12 0
-14 -14 -12 -77 l3 -78 38 -1 37 -1 0 48 0 49 120 0 120 0 0 -50 0 -50 35 0
c39 0 37 -5 39 110 1 49 -1 55 -19 55 -19 0 -20 8 -25 164 l-5 165 -118 0
c-65 1 -122 -1 -126 -4z m169 -193 l0 -133 -70 0 c-38 1 -70 3 -70 6 0 3 7 27
15 54 8 26 18 84 21 127 l7 79 48 0 49 0 0 -133z"/>
<path d="M845 2340 c-1 -3 -2 -90 -1 -195 l1 -190 110 0 c90 0 115 4 137 18
55 37 60 129 10 166 -15 11 -21 21 -15 21 16 0 43 52 43 84 0 36 -45 84 -85
92 -43 8 -196 11 -200 4z"/>
<path d="M1240 2149 l0 -200 42 3 42 3 75 124 76 124 3 -126 3 -127 40 0 39 0
-2 198 -3 197 -33 0 c-19 0 -37 -2 -41 -5 -4 -3 -41 -60 -82 -128 l-74 -122
-3 129 -3 129 -39 0 -40 1 0 -200z"/>
<path d="M1682 2341 c-23 -6 -22 -8 33 -93 l56 -86 -61 -102 c-33 -56 -60
-104 -60 -106 0 -3 23 -4 51 -2 l51 3 40 78 c33 64 44 77 64 77 23 0 24 -2 24
-80 l0 -80 40 0 40 0 0 81 0 80 26 -3 c21 -2 33 -17 66 -80 l40 -78 49 0 c27
0 49 3 49 6 0 3 -25 47 -55 99 -30 51 -55 99 -55 106 0 6 23 48 50 91 28 43
50 82 50 87 0 4 -15 6 -32 5 -18 -1 -40 -3 -48 -3 -8 -1 -34 -37 -58 -80 -35
-65 -46 -78 -62 -74 -18 5 -20 14 -20 83 l0 77 -37 -1 -38 -2 -5 -80 c-7 -108
-27 -106 -86 6 -20 39 -39 70 -43 71 -34 4 -49 4 -69 0z"/>
<path d="M2280 2148 l0 -198 131 0 130 0 -3 32 -3 31 -87 0 -88 -1 0 54 0 54
78 0 c76 0 78 1 77 24 0 13 -3 27 -6 30 -3 3 -38 6 -77 7 l-72 2 0 48 0 49 91
0 90 0 -3 31 -3 32 -128 1 -127 1 0 -197z"/>
<path d="M2640 2148 l0 -198 40 0 40 0 0 85 0 85 80 0 80 0 0 -85 0 -85 40 0
40 0 0 198 0 199 -40 0 -40 0 0 -79 c0 -43 -1 -78 -2 -79 -2 0 -38 -3 -80 -6
l-78 -5 0 85 0 84 -40 0 -40 0 0 -199z"/>
<path d="M3076 2295 c-3 -27 -6 -116 -6 -197 l0 -148 43 0 42 0 75 125 75 126
3 -126 3 -125 45 0 44 0 -1 191 c-2 184 -2 191 -23 199 -11 4 -28 6 -36 4 -8
-1 -18 -3 -22 -3 -3 -1 -39 -55 -79 -121 -40 -66 -76 -120 -79 -120 -4 0 -4
45 -2 101 5 133 2 146 -42 145 -33 -1 -34 -2 -40 -51z"/>
<path d="M3510 2145 l0 -195 130 0 130 0 0 33 0 32 -56 -3 c-30 -2 -71 -1 -90
2 -33 7 -34 8 -34 56 l0 50 81 0 80 0 -3 33 -3 32 -75 0 -75 0 -3 48 -3 47 90
0 91 0 0 30 0 30 -130 0 -130 0 0 -195z"/>
<path d="M2848 1553 c-3 -24 -9 -29 -41 -34 -103 -17 -160 -142 -108 -239 20
-37 88 -80 128 -80 18 0 23 -5 23 -26 0 -23 3 -25 38 -22 20 2 38 9 38 16 1 6
2 17 3 22 0 6 9 10 18 10 9 0 35 9 58 20 106 51 114 210 15 278 -18 12 -44 22
-57 22 -18 0 -28 8 -36 30 -9 25 -17 30 -44 30 -27 0 -32 -4 -35 -27z"/>
<path d="M930 1557 c-46 -11 -94 -59 -109 -106 -19 -65 -14 -152 12 -202 26
-50 89 -89 143 -89 39 0 94 22 116 47 73 81 61 276 -20 329 -35 23 -98 32
-142 21z m97 -81 c24 -21 28 -32 31 -93 7 -113 -26 -162 -98 -151 -72 10 -96
183 -35 244 31 30 66 31 102 0z"/>
<path d="M2390 1560 c-86 -15 -134 -88 -132 -201 1 -42 8 -83 18 -104 44 -94
153 -122 241 -62 45 30 67 79 71 162 3 58 -1 78 -20 114 -37 72 -100 104 -178
91z m84 -83 c44 -44 46 -169 5 -221 -20 -26 -58 -34 -94 -20 -29 11 -45 60
-45 134 0 66 2 74 29 101 36 35 73 38 105 6z"/>
<path d="M3633 1554 c-82 -28 -124 -127 -104 -241 17 -89 64 -140 139 -150 84
-11 172 47 172 115 0 19 -5 22 -40 22 -32 0 -40 -4 -40 -18 0 -54 -93 -72
-130 -25 -19 25 -21 38 -18 116 3 79 6 91 27 108 42 34 121 14 121 -32 0 -16
7 -19 41 -19 41 0 41 0 35 33 -15 75 -116 120 -203 91z"/>
<path d="M4053 1558 c-81 -17 -131 -108 -119 -221 11 -111 71 -176 164 -177
69 0 136 48 148 108 6 32 6 32 -35 32 -33 0 -41 -3 -41 -18 0 -56 -96 -70
-133 -20 -26 35 -28 164 -3 203 32 48 110 45 129 -5 10 -26 16 -30 49 -30 45
0 49 17 18 67 -33 55 -99 77 -177 61z"/>
<path d="M4901 1559 c-74 -15 -120 -76 -128 -167 -7 -79 11 -138 56 -183 44
-45 93 -57 156 -39 83 23 127 103 119 216 -9 126 -91 196 -203 173z m90 -88
c27 -27 29 -35 29 -101 0 -105 -23 -140 -90 -140 -36 0 -66 36 -75 91 -23 136
59 226 136 150z"/>
<path d="M7465 1560 c-93 -20 -135 -81 -135 -196 0 -52 6 -81 23 -114 42 -85
148 -112 233 -60 97 61 100 272 3 343 -33 23 -86 35 -124 27z m72 -75 c31 -22
46 -78 40 -147 -6 -73 -33 -108 -84 -108 -63 0 -90 56 -81 167 4 46 10 61 32
80 31 27 62 29 93 8z"/>
<path d="M390 1365 l0 -195 40 0 40 0 0 163 0 162 70 0 c38 -1 71 -3 74 -6 3
-3 6 -76 7 -162 l1 -157 44 0 44 0 0 195 0 195 -160 0 -160 0 0 -195z"/>
<path d="M1430 1365 l0 -195 40 0 40 0 0 163 0 162 63 -1 c34 -1 70 -2 80 -3
15 -1 17 -16 17 -161 l0 -160 40 0 40 0 0 195 0 195 -160 0 -160 0 0 -195z"/>
<path d="M1860 1373 c0 -104 4 -192 8 -198 6 -9 29 -11 70 -6 8 1 12 22 12 70
l0 68 65 1 c76 1 117 21 140 68 19 41 19 68 -2 111 -25 54 -76 73 -195 73
l-98 0 0 -187z"/>
<path d="M3185 1550 c-7 -11 -5 -358 2 -376 2 -7 51 -12 133 -13 l130 -2 0 35
0 36 -90 0 -90 0 0 55 0 55 75 0 75 0 0 30 0 30 -75 0 -75 0 0 48 0 47 90 -3
90 -3 0 35 0 36 -129 0 c-75 0 -132 -4 -136 -10z"/>
<path d="M4350 1365 l0 -195 43 0 42 0 75 128 75 127 3 -128 3 -127 39 0 40 0
0 195 0 195 -42 0 -43 0 -75 -128 -75 -127 -3 128 -3 127 -39 0 -40 0 0 -195z"/>
<path d="M5210 1365 l0 -195 40 0 40 0 0 80 c0 85 -2 83 55 83 8 0 35 -1 60
-2 l45 -1 0 -80 0 -80 40 0 40 0 0 195 0 195 -40 0 -40 0 0 -80 0 -80 -80 0
-80 0 0 80 0 80 -40 0 -40 0 0 -195z"/>
<path d="M5751 1538 c-4 -13 -36 -98 -70 -189 -33 -91 -61 -170 -61 -176 0 -5
18 -10 40 -10 37 -1 40 1 53 41 l14 41 70 3 71 3 14 -43 c14 -41 17 -43 56
-45 23 -1 42 1 42 4 0 4 -33 93 -72 200 l-73 193 -38 0 c-30 0 -39 -5 -46 -22z"/>
<path d="M6139 1558 c0 -2 -2 -39 -4 -83 -12 -201 -18 -228 -55 -240 -14 -4
-20 -15 -20 -36 0 -26 3 -29 33 -29 77 0 107 57 115 213 5 117 0 109 74 111
l38 1 0 -162 0 -163 40 0 40 0 0 195 0 195 -130 0 c-71 0 -130 -1 -131 -2z"/>
<path d="M6511 1373 c1 -103 3 -193 6 -199 7 -18 183 -10 226 11 47 22 72 70
64 126 -9 69 -72 109 -169 109 l-38 0 0 70 0 70 -45 0 -46 0 2 -187z"/>
<path d="M6900 1379 c1 -100 4 -188 7 -195 3 -9 20 -14 43 -14 35 0 38 2 37
28 0 15 1 52 2 82 l1 56 73 -4 c39 -2 73 -5 74 -6 1 -1 3 -31 4 -66 3 -86 5
-90 48 -90 l38 0 2 195 2 195 -46 0 -46 0 2 -67 c1 -38 1 -74 0 -80 -1 -9 -23
-13 -75 -13 -87 0 -89 3 -80 96 l7 64 -47 0 -47 0 1 -181z"/>
<path d="M7760 1365 l0 -195 40 0 c25 0 40 5 41 13 1 6 1 66 -1 132 -1 66 1
118 4 115 3 -3 25 -62 49 -130 42 -120 45 -125 74 -128 30 -3 31 -2 73 115 24
65 47 127 52 138 5 12 6 -38 3 -117 l-4 -138 44 0 45 0 0 195 0 196 -56 -3
-57 -3 -46 -132 c-25 -73 -49 -133 -53 -133 -4 0 -10 10 -14 23 -3 12 -24 73
-46 135 l-40 112 -54 0 -54 0 0 -195z"/>
<path d="M8270 1555 c0 -3 29 -64 65 -135 36 -71 65 -136 65 -143 0 -23 -24
-48 -48 -50 -18 -1 -22 -7 -22 -34 0 -28 3 -33 25 -33 34 0 72 19 89 44 11 18
67 144 143 324 l13 32 -44 0 -44 0 -33 -85 c-17 -47 -35 -85 -39 -85 -4 0 -25
38 -46 85 l-38 85 -43 0 c-24 0 -43 -2 -43 -5z"/>
<path d="M384 771 c-6 -7 -4 -361 3 -377 3 -9 21 -14 45 -14 l41 0 -6 143 c-4
78 -4 138 -2 132 3 -5 27 -68 53 -140 45 -125 48 -130 76 -130 27 0 30 5 77
134 27 74 50 135 51 137 2 1 1 -60 0 -137 l-4 -139 41 0 41 0 0 198 0 197 -52
0 -53 0 -49 -138 c-27 -76 -52 -134 -56 -130 -4 4 -27 65 -51 135 l-43 126
-54 4 c-30 2 -56 1 -58 -1z"/>
<path d="M1058 773 c-23 -4 -31 -14 -52 -71 -97 -255 -116 -308 -116 -315 0
-5 19 -7 42 -5 37 3 42 6 53 38 l12 35 73 0 73 0 12 -35 c11 -32 16 -35 53
-38 23 -2 42 0 42 5 0 13 -133 367 -143 381 -5 6 -12 11 -16 11 -3 -1 -18 -4
-33 -6z"/>
<path d="M1402 763 c-114 -56 -123 -287 -13 -360 42 -28 117 -31 168 -6 61 28
101 123 51 117 -13 -1 -31 -3 -40 -3 -10 -1 -18 -7 -18 -14 0 -26 -36 -47 -78
-47 -59 0 -75 27 -74 129 0 43 5 87 11 99 29 54 141 38 141 -20 0 -15 8 -18
41 -18 41 0 41 0 35 30 -18 91 -132 138 -224 93z"/>
<path d="M1709 775 c-1 0 -2 -15 -4 -32 l-2 -33 61 0 61 0 -2 -147 c-2 -82 0
-156 3 -165 4 -13 16 -18 45 -18 l39 0 0 165 0 165 60 0 60 0 0 30 c0 17 -3
30 -7 30 -5 0 -77 1 -161 3 -83 1 -153 2 -153 2z"/>
<path d="M2130 772 c-6 -2 -10 -78 -10 -198 l0 -194 130 0 130 0 0 35 0 35
-90 0 -90 0 0 50 0 49 78 3 77 3 0 30 -1 30 -77 -1 -77 -1 0 48 0 49 90 0 90
0 0 30 c0 17 -5 30 -12 31 -72 3 -230 3 -238 1z"/>
<path d="M2480 578 l0 -198 40 0 40 0 0 69 0 69 70 4 c83 4 118 26 139 85 17
49 10 83 -28 126 -29 32 -30 32 -145 37 l-116 5 0 -197z"/>
<path d="M2965 770 c-29 -11 -72 -60 -85 -95 -6 -16 -12 -61 -12 -98 0 -128
58 -197 167 -197 77 0 138 46 147 110 3 22 -1 25 -31 26 -28 0 -37 -5 -53 -32
-21 -35 -56 -47 -98 -32 -37 13 -50 46 -50 133 0 62 3 78 23 99 38 44 122 33
129 -16 2 -19 10 -24 46 -26 42 -3 43 -2 37 20 -14 47 -42 83 -75 100 -36 19
-111 23 -145 8z"/>
<path d="M3260 743 l0 -33 60 0 60 0 0 -165 0 -165 40 0 40 0 0 165 0 165 60
0 60 0 0 30 c0 22 -5 30 -17 31 -10 0 -82 1 -160 2 l-143 2 0 -32z"/>
<path d="M3670 578 l0 -198 88 0 c106 0 155 13 182 47 28 36 27 105 -2 133
-12 11 -25 20 -29 20 -5 0 3 11 16 25 47 47 29 132 -33 156 -15 6 -71 11 -125
12 l-97 2 0 -197z"/>
<path d="M4036 773 c-2 -2 25 -65 60 -138 35 -74 64 -140 64 -148 0 -18 -32
-47 -53 -47 -12 0 -17 -9 -17 -30 0 -28 3 -30 34 -30 57 0 80 31 160 218 60
139 71 172 58 173 -9 0 -27 2 -40 3 -29 3 -34 -4 -68 -96 -16 -43 -31 -78 -34
-78 -3 0 -23 40 -46 88 -40 86 -41 87 -77 88 -20 0 -39 -1 -41 -3z"/>
</g>
</svg>
