<?xml version="1.0" standalone="no"?>
<!DOCTYPE svg PUBLIC "-//W3C//DTD SVG 20010904//EN"
 "http://www.w3.org/TR/2001/REC-SVG-20010904/DTD/svg10.dtd">
<svg version="1.0" xmlns="http://www.w3.org/2000/svg"
 width="582.000000pt" height="569.000000pt" viewBox="0 0 582.000000 569.000000"
 preserveAspectRatio="xMidYMid meet">
<metadata>
Created by potrace 1.16, written by Peter Selinger 2001-2019
</metadata>
<g transform="translate(0.000000,569.000000) scale(0.100000,-0.100000)"
fill="#000000" stroke="none">
<path d="M2605 5562 c-95 -46 -142 -140 -132 -266 13 -176 103 -266 250 -253
78 7 133 44 167 112 21 43 25 64 25 145 0 86 -3 101 -30 155 -41 82 -93 118
-178 122 -46 3 -72 -1 -102 -15z m155 -100 c34 -35 50 -87 50 -170 0 -108 -37
-162 -113 -162 -30 0 -45 7 -67 30 -72 77 -65 281 12 317 43 21 87 15 118 -15z"/>
<path d="M3395 5510 c-6 -29 -8 -30 -63 -30 -145 0 -247 -133 -211 -276 15
-57 76 -125 129 -140 32 -9 35 -13 32 -46 -2 -34 -1 -36 33 -42 20 -4 42 -9
49 -12 8 -3 16 7 22 26 9 31 10 32 76 33 56 2 73 7 109 32 114 80 126 259 22
344 -21 17 -52 36 -71 42 -30 10 -32 13 -26 43 6 32 5 33 -40 45 -24 6 -47 11
-50 11 -2 0 -7 -13 -11 -30z m-47 -207 c-27 -126 -38 -163 -46 -163 -4 0 -21
9 -39 20 -37 22 -55 72 -44 122 17 73 53 108 112 108 l37 0 -20 -87z m177 35
c62 -54 42 -191 -31 -218 -38 -15 -74 -12 -74 5 0 15 36 183 46 218 7 23 28
21 59 -5z"/>
<path d="M1935 5425 c-60 -20 -111 -37 -113 -39 -3 -4 148 -485 155 -495 4 -5
94 17 101 24 2 2 -8 39 -22 82 -14 43 -26 83 -26 89 0 5 32 20 71 33 119 38
177 114 157 205 -18 83 -71 128 -155 133 -45 2 -83 -5 -168 -32z m190 -80 c28
-27 35 -94 11 -114 -21 -18 -129 -52 -137 -44 -9 10 -52 143 -48 147 2 2 24
10 49 19 66 23 97 21 125 -8z"/>
<path d="M3846 5109 c-65 -127 -114 -234 -110 -239 5 -4 75 -42 156 -84 l147
-77 20 38 19 39 -109 58 -109 58 32 59 c18 32 36 59 39 59 4 0 45 -20 92 -45
90 -48 95 -48 115 5 9 24 4 28 -79 73 -49 26 -89 50 -89 53 0 10 51 104 56
104 3 0 53 -25 110 -55 l103 -55 21 39 20 40 -154 80 c-84 45 -155 81 -157 81
-2 0 -57 -104 -123 -231z"/>
<path d="M1367 5148 c-97 -62 -177 -117 -177 -121 0 -8 255 -414 271 -431 4
-5 27 4 52 20 l45 28 -48 75 c-26 42 -79 125 -118 185 l-71 109 84 54 c47 29
88 53 92 53 5 0 58 -77 118 -172 61 -94 113 -175 116 -180 3 -6 27 3 52 19
l46 28 -125 195 c-69 107 -133 207 -143 223 l-17 27 -177 -112z"/>
<path d="M4472 4958 c-57 -10 -101 -38 -158 -101 -85 -94 -115 -198 -81 -280
32 -75 149 -145 228 -134 35 5 109 43 109 57 0 3 -18 20 -40 38 -38 31 -41 32
-62 18 -36 -25 -82 -20 -117 13 -30 28 -36 44 -31 86 6 55 90 162 154 196 52
27 87 21 128 -23 30 -32 35 -62 16 -103 -10 -23 -8 -28 28 -59 l39 -35 22 47
c13 26 23 56 23 67 0 64 -44 138 -110 185 -37 26 -96 38 -148 28z"/>
<path d="M823 4737 c-520 -545 -791 -1243 -769 -1982 18 -602 198 -1116 560
-1600 116 -155 382 -422 536 -537 740 -553 1644 -713 2540 -447 58 17 108 33
112 37 6 6 -182 545 -195 558 -3 3 -47 -8 -99 -25 -349 -111 -785 -127 -1154
-41 -508 119 -955 409 -1267 822 -193 256 -331 559 -392 863 -142 700 60 1413
542 1915 l93 97 -203 216 c-111 118 -205 216 -208 216 -4 1 -47 -41 -96 -92z"/>
<path d="M4889 4485 c-94 -18 -214 -109 -250 -189 -26 -57 -24 -112 7 -174 48
-98 141 -147 229 -122 25 7 47 16 50 19 2 4 -8 26 -23 49 -18 28 -32 40 -42
36 -46 -17 -67 -15 -97 10 -87 73 -58 151 91 240 96 58 169 43 196 -39 10 -30
9 -40 -11 -74 l-22 -39 31 -42 30 -42 31 42 c52 72 54 145 6 226 -29 49 -85
92 -137 103 -18 4 -58 3 -89 -4z"/>
<path d="M5105 3894 c-126 -46 -235 -86 -242 -89 -16 -5 15 -93 37 -105 8 -4
95 -22 193 -41 97 -18 177 -36 177 -40 0 -3 -35 -19 -77 -34 -43 -16 -112 -41
-154 -57 l-77 -29 18 -47 c10 -26 24 -47 32 -46 19 2 462 165 472 175 5 4 1
28 -10 55 l-20 47 -184 35 c-102 19 -188 37 -192 41 -4 4 59 31 140 60 81 30
151 57 156 62 8 7 -22 99 -33 99 -3 -1 -109 -39 -236 -86z"/>
<path d="M5274 3279 c-142 -17 -225 -101 -225 -226 0 -177 171 -264 385 -196
101 32 167 136 151 235 -24 143 -133 209 -311 187z m128 -108 c15 -1 42 -14
60 -29 27 -25 31 -36 31 -75 0 -25 -6 -54 -14 -63 -38 -46 -199 -77 -268 -51
-74 27 -98 113 -46 167 33 34 117 59 185 54 14 -1 37 -2 52 -3z"/>
<path d="M5065 2648 c-2 -7 -6 -31 -7 -52 l-3 -40 103 -16 c56 -10 105 -19
108 -22 4 -5 -24 -199 -30 -205 -2 -2 -51 6 -111 17 -60 11 -109 19 -111 17
-1 -1 -5 -25 -9 -53 l-7 -52 94 -16 c51 -10 167 -30 258 -45 l165 -28 8 49 c5
27 6 52 4 55 -3 3 -49 12 -101 21 -92 16 -96 18 -96 42 0 32 26 169 34 177 5
5 127 -11 182 -24 19 -4 23 2 33 48 6 28 10 53 9 54 -2 2 -34 8 -73 14 -38 6
-148 24 -243 41 -197 34 -201 34 -207 18z"/>
<path d="M4940 2070 l-24 -51 41 -42 41 -42 -39 -84 -39 -84 -58 7 -58 7 -21
-51 c-12 -27 -18 -52 -15 -54 4 -2 52 -7 107 -10 55 -4 120 -9 145 -11 25 -2
86 -7 135 -10 50 -3 106 -8 125 -11 34 -5 36 -3 58 42 l23 47 -198 199 -199
199 -24 -51z"/>
<path d="M4665 1537 c-53 -91 -30 -144 121 -292 l112 -110 -46 -52 -47 -52
-135 115 c-74 63 -149 127 -167 140 l-32 26 -30 -34 c-17 -18 -31 -38 -31 -44
0 -9 317 -284 380 -331 14 -10 33 8 130 123 94 113 111 137 99 148 -136 121
-233 215 -250 243 -16 26 -20 44 -16 75 5 35 2 44 -21 64 -15 13 -30 24 -34
24 -4 0 -19 -20 -33 -43z"/>
<path d="M4190 1054 c-106 -70 -127 -90 -151 -136 -54 -105 22 -231 140 -231
48 0 88 14 158 58 l42 26 51 -76 c28 -41 54 -75 57 -75 11 0 83 52 82 59 -1
13 -275 425 -284 428 -6 2 -48 -22 -95 -53z m98 -140 c24 -36 42 -67 40 -68
-63 -43 -106 -66 -122 -66 -53 0 -93 63 -72 113 9 23 88 87 106 87 3 0 24 -30
48 -66z"/>
<path d="M3868 844 c-21 -13 -38 -27 -38 -30 0 -8 259 -406 276 -423 11 -12
19 -11 54 12 22 15 40 30 40 32 0 3 -30 51 -67 108 -36 56 -99 153 -139 215
-41 61 -77 112 -81 111 -5 0 -25 -11 -45 -25z"/>
</g>
</svg>
