<?xml version="1.0" standalone="no"?>
<!DOCTYPE svg PUBLIC "-//W3C//DTD SVG 20010904//EN"
 "http://www.w3.org/TR/2001/REC-SVG-20010904/DTD/svg10.dtd">
<svg version="1.0" xmlns="http://www.w3.org/2000/svg"
 width="1535.000000pt" height="1024.000000pt" viewBox="0 0 1535.000000 1024.000000"
 preserveAspectRatio="xMidYMid meet">
<metadata>
Created by potrace 1.16, written by Peter Selinger 2001-2019
</metadata>
<g transform="translate(0.000000,1024.000000) scale(0.100000,-0.100000)"
fill="#000000" stroke="none">
<path d="M2605 8022 c-115 -55 -161 -188 -120 -347 19 -73 56 -122 116 -153
37 -20 55 -23 112 -19 87 6 141 39 177 112 21 43 25 64 25 145 0 86 -3 101
-30 155 -41 82 -93 118 -178 122 -46 3 -72 -1 -102 -15z m155 -100 c34 -35 50
-87 50 -170 0 -108 -37 -162 -113 -162 -30 0 -45 7 -67 30 -72 77 -65 281 12
317 43 21 87 15 118 -15z"/>
<path d="M3395 7971 c-6 -28 -8 -29 -75 -33 -85 -4 -142 -39 -177 -108 -63
-123 -13 -264 108 -306 31 -10 34 -14 31 -46 -2 -34 -1 -36 33 -42 20 -4 42
-9 50 -12 8 -4 15 5 20 24 6 29 8 30 75 34 57 3 77 9 112 33 78 55 113 167 81
261 -17 49 -76 107 -129 124 -30 10 -32 14 -27 44 5 32 4 33 -40 45 -59 14
-54 16 -62 -18z m-45 -205 c-27 -120 -40 -166 -48 -166 -4 0 -21 9 -39 20 -37
22 -55 72 -44 122 17 73 53 108 112 108 l37 0 -18 -84z m169 38 c47 -33 58
-111 26 -175 -20 -37 -39 -50 -85 -56 -48 -7 -48 -8 -20 120 32 143 32 143 79
111z"/>
<path d="M1935 7884 c-60 -19 -111 -36 -113 -38 -3 -4 148 -485 155 -495 4 -5
94 17 101 24 2 2 -8 39 -22 82 -14 43 -26 83 -26 89 0 5 33 21 73 33 84 27
139 75 155 134 21 74 -28 169 -101 196 -48 18 -107 11 -222 -25z m190 -79 c28
-27 35 -94 11 -114 -21 -18 -129 -52 -137 -44 -9 10 -52 143 -48 147 2 2 24
10 49 19 66 23 97 21 125 -8z"/>
<path d="M3846 7569 c-65 -127 -114 -235 -110 -239 5 -4 75 -42 156 -85 l147
-76 20 39 20 39 -110 57 -110 58 32 56 c17 32 33 59 35 61 2 2 44 -17 93 -42
95 -50 100 -49 119 3 9 24 4 28 -79 73 -49 26 -89 50 -89 53 0 10 51 104 56
104 4 0 53 -25 110 -55 l103 -55 21 40 20 40 -52 26 c-29 15 -99 51 -155 80
-55 30 -103 54 -105 54 -1 0 -56 -104 -122 -231z"/>
<path d="M1367 7607 c-97 -61 -177 -115 -177 -120 0 -11 271 -437 279 -437 3
0 25 12 47 28 l42 27 -118 184 -118 185 84 53 c46 29 87 53 91 53 5 0 58 -77
118 -172 61 -94 113 -176 116 -181 3 -5 27 4 52 20 l46 28 -141 220 c-77 121
-141 221 -142 222 -2 2 -82 -48 -179 -110z"/>
<path d="M4472 7418 c-57 -10 -101 -38 -158 -101 -142 -157 -121 -322 50 -398
38 -16 60 -20 95 -15 39 5 111 42 111 56 0 3 -19 20 -41 39 -37 31 -41 32 -58
17 -29 -26 -84 -20 -120 13 -30 28 -36 44 -31 86 6 55 90 162 154 196 52 27
87 21 128 -23 30 -32 35 -62 16 -103 -10 -23 -8 -28 28 -59 l39 -35 22 47 c13
26 23 56 23 67 0 64 -44 138 -110 185 -37 26 -96 38 -148 28z"/>
<path d="M7265 7315 c-77 -28 -110 -96 -103 -210 6 -90 33 -139 91 -165 94
-42 200 2 222 93 7 26 6 27 -33 27 -32 0 -42 -4 -47 -20 -10 -32 -34 -50 -66
-50 -63 0 -89 39 -89 135 0 96 26 135 89 135 32 0 56 -18 66 -50 5 -16 15 -20
47 -20 38 0 40 1 34 26 -22 87 -119 133 -211 99z"/>
<path d="M8419 7307 c-61 -33 -90 -91 -90 -181 0 -51 6 -80 23 -114 48 -97
168 -118 249 -45 44 39 59 82 59 163 0 83 -35 151 -92 179 -57 27 -94 27 -149
-2z m125 -70 c46 -46 46 -178 1 -223 -32 -32 -75 -31 -106 2 -21 23 -24 35
-24 109 0 74 3 86 24 109 31 33 74 34 105 3z"/>
<path d="M8869 7321 c-80 -26 -114 -86 -114 -201 1 -60 6 -83 25 -117 56 -101
204 -108 267 -14 36 53 31 71 -17 71 -29 0 -40 -4 -40 -15 0 -8 -9 -24 -20
-35 -28 -28 -81 -26 -109 4 -20 21 -24 36 -25 105 -1 66 3 84 20 108 36 48
117 41 130 -12 5 -21 12 -25 45 -25 31 0 39 4 39 19 0 26 -42 84 -71 98 -35
17 -99 24 -130 14z"/>
<path d="M9267 7316 c-81 -30 -112 -92 -105 -210 6 -91 28 -133 86 -163 94
-47 204 -4 227 90 7 26 6 27 -34 27 -35 0 -41 -3 -47 -25 -10 -41 -69 -59
-114 -35 -52 28 -52 222 0 250 45 24 104 6 114 -35 6 -22 12 -25 47 -25 40 0
41 1 34 28 -21 85 -118 131 -208 98z"/>
<path d="M10552 7320 c-71 -17 -113 -82 -118 -180 -3 -76 13 -130 52 -171 78
-81 239 -45 260 59 6 32 6 32 -34 32 -34 0 -41 -4 -46 -25 -13 -51 -94 -60
-128 -15 -28 38 -29 171 -1 208 35 47 116 39 129 -13 5 -21 12 -25 45 -25 30
0 39 4 39 18 0 24 -35 78 -62 95 -30 20 -94 27 -136 17z"/>
<path d="M11324 7311 c-52 -24 -81 -65 -96 -136 -31 -156 75 -284 204 -245 89
26 136 111 124 223 -9 91 -49 148 -117 167 -48 14 -68 12 -115 -9z m101 -57
c43 -17 64 -156 34 -220 -27 -56 -106 -58 -134 -3 -17 33 -23 115 -11 166 12
51 61 76 111 57z"/>
<path d="M6770 7125 l2 -195 101 0 c113 0 162 16 185 60 19 37 9 101 -21 123
l-24 19 23 23 c28 28 32 79 8 113 -28 41 -66 52 -174 52 l-101 0 1 -195z"/>
<path d="M7580 7125 l0 -195 130 0 130 0 0 36 0 36 -90 -4 -90 -3 0 53 0 52
75 0 75 0 0 30 0 30 -75 0 -75 0 0 50 0 50 90 0 90 0 0 30 0 30 -130 0 -130 0
0 -195z"/>
<path d="M7940 7125 l0 -195 40 0 40 0 0 68 0 67 45 1 c25 1 60 5 78 8 74 14
116 106 80 176 -28 54 -71 70 -185 70 l-98 0 0 -195z m199 111 c17 -18 19 -72
3 -88 -6 -6 -36 -13 -67 -16 l-55 -4 0 59 c0 33 2 62 5 64 10 10 100 -2 114
-15z"/>
<path d="M9570 7125 l2 -195 43 0 44 0 72 120 c40 67 75 122 79 125 3 2 5 -52
3 -121 l-3 -124 45 0 45 0 0 195 0 195 -43 0 -43 0 -74 -124 -75 -123 -3 123
-3 124 -45 0 -45 0 1 -195z"/>
<path d="M10010 7124 l0 -195 43 3 42 3 75 124 75 124 3 -126 3 -127 39 0 40
0 0 195 0 195 -42 0 -43 0 -75 -128 -75 -127 -3 128 -3 127 -39 0 -40 0 0
-196z"/>
<path d="M10850 7125 l0 -195 40 0 40 0 0 80 c0 78 1 80 24 80 19 0 34 -16 75
-80 l51 -80 45 0 c25 0 45 3 45 6 0 3 -13 24 -28 47 -16 23 -45 67 -64 97
l-35 56 49 74 c78 119 76 110 19 110 l-49 0 -46 -79 c-62 -105 -80 -104 -84 2
l-3 77 -39 0 -40 0 0 -195z"/>
<path d="M11660 7125 l0 -195 130 0 130 0 0 36 0 36 -90 -4 -90 -3 0 53 0 52
80 0 80 0 0 30 0 30 -80 0 -80 0 0 50 0 50 90 0 90 0 0 30 0 30 -130 0 -130 0
0 -195z"/>
<path d="M823 7197 c-364 -381 -610 -844 -713 -1339 -44 -215 -54 -316 -54
-563 -1 -345 34 -573 134 -875 137 -417 353 -764 674 -1086 195 -194 332 -303
546 -431 575 -344 1248 -469 1920 -357 141 23 455 105 472 122 6 6 -181 545
-195 558 -3 3 -47 -8 -99 -25 -204 -65 -412 -95 -658 -95 -201 1 -339 17 -520
61 -906 220 -1574 980 -1670 1899 -14 129 -11 361 7 494 58 454 259 876 570
1200 l93 97 -203 216 c-111 118 -205 216 -208 216 -4 1 -47 -41 -96 -92z"/>
<path d="M4889 6945 c-94 -18 -214 -109 -250 -189 -26 -57 -24 -112 7 -174 48
-98 141 -147 229 -122 25 7 47 16 50 19 8 14 -50 91 -65 86 -58 -17 -67 -16
-97 9 -70 59 -65 116 16 187 125 111 237 116 271 14 10 -30 9 -40 -11 -74
l-22 -39 31 -42 30 -41 25 33 c63 82 63 159 0 251 -50 72 -123 101 -214 82z"/>
<path d="M6780 6460 c0 -134 34 -170 159 -170 l70 0 3 -72 3 -72 38 -1 37 -1
0 198 0 198 -40 0 -40 0 0 -89 c0 -84 -1 -89 -22 -95 -40 -10 -83 -6 -106 10
-20 13 -22 24 -22 95 l0 79 -40 0 -40 0 0 -80z"/>
<path d="M7210 6341 l0 -198 128 1 127 1 3 33 3 32 -90 0 -91 0 0 53 0 54 75
-5 75 -4 0 36 0 36 -75 0 -75 0 0 45 0 45 90 0 90 0 0 35 0 35 -130 0 -130 0
0 -199z"/>
<path d="M7570 6346 c0 -177 2 -195 18 -200 9 -3 26 -4 37 -2 19 3 20 10 18
141 -2 76 -1 136 1 134 2 -2 25 -62 51 -134 25 -71 50 -134 55 -139 6 -6 19
-5 33 1 19 9 33 37 66 130 23 65 45 123 49 130 4 6 7 -50 7 -125 l0 -136 38
-3 37 -3 0 200 0 200 -53 0 -53 0 -49 -140 c-27 -77 -51 -138 -53 -135 -2 2
-26 64 -52 137 l-47 133 -51 3 -52 3 0 -195z"/>
<path d="M8102 6343 l3 -198 35 0 35 0 3 163 2 162 75 0 c71 0 75 -1 76 -22 0
-13 1 -86 2 -163 l2 -140 40 0 40 0 3 198 2 197 -160 0 -160 0 2 -197z"/>
<path d="M8532 6343 l3 -197 30 -2 c17 -1 35 1 42 3 7 3 45 61 85 130 l73 125
5 -128 5 -128 38 -1 37 -1 0 198 0 198 -39 0 -40 0 -78 -130 -78 -130 -3 130
-3 130 -40 0 -39 0 2 -197z"/>
<path d="M9040 6522 c-56 -30 -84 -92 -85 -182 0 -61 4 -83 24 -116 47 -83
149 -109 228 -57 56 36 78 87 78 178 0 121 -62 195 -165 195 -25 0 -61 -8 -80
-18z m138 -78 c12 -14 22 -37 23 -52 6 -139 -12 -177 -81 -177 -68 0 -87 41
-81 178 1 17 13 41 31 59 36 35 71 33 108 -8z"/>
<path d="M9390 6342 l0 -198 38 1 37 1 3 82 3 82 79 0 80 0 0 -83 0 -83 38 1
37 1 3 197 2 197 -40 0 -40 0 0 -80 0 -80 -80 0 -80 0 0 80 0 80 -40 0 -40 0
0 -198z"/>
<path d="M9872 6349 c-40 -106 -69 -195 -67 -199 3 -5 22 -7 42 -5 33 2 38 6
50 41 l13 39 70 0 70 0 13 -40 c13 -37 16 -40 55 -43 23 -2 42 0 42 5 0 4 -32
95 -72 201 l-71 192 -37 0 -37 0 -71 -191z"/>
<path d="M10180 6505 l0 -35 60 0 60 0 2 -162 3 -162 35 0 35 -1 3 163 2 162
60 0 60 0 0 35 0 35 -160 0 -160 0 0 -35z"/>
<path d="M10590 6342 l0 -198 38 1 37 1 3 82 3 82 79 0 80 0 0 -83 0 -83 38 1
37 1 3 197 2 197 -40 0 -40 0 0 -80 0 -80 -80 0 -80 0 0 80 0 80 -40 0 -40 0
0 -198z"/>
<path d="M11104 6526 c-66 -29 -100 -108 -91 -213 6 -76 35 -126 88 -153 70
-36 152 -20 201 38 29 34 50 113 43 158 -3 16 -7 43 -10 61 -7 38 -46 88 -86
108 -35 18 -104 19 -145 1z m131 -77 c17 -17 20 -33 20 -108 0 -73 -3 -93 -19
-110 -28 -31 -86 -28 -117 5 -21 22 -24 35 -24 98 0 83 15 121 54 135 32 11
60 5 86 -20z"/>
<path d="M11450 6341 l0 -198 128 1 127 1 3 33 3 32 -90 0 -91 0 0 53 0 54 74
-5 c77 -4 88 2 82 44 -2 16 -14 19 -79 22 l-77 3 0 44 0 45 90 0 90 0 0 35 0
35 -130 0 -130 0 0 -199z"/>
<path d="M5105 6354 c-126 -46 -236 -86 -243 -89 -9 -3 -8 -14 4 -47 9 -24 23
-48 30 -54 7 -6 94 -26 193 -44 100 -19 181 -37 181 -41 0 -3 -60 -28 -132
-54 -73 -27 -143 -52 -156 -56 -22 -8 -22 -9 -6 -51 10 -24 20 -46 24 -51 6
-7 466 157 484 173 12 12 -23 99 -43 104 -9 3 -92 19 -186 37 -93 17 -173 34
-177 38 -4 4 59 31 140 60 81 30 150 57 155 60 8 8 -21 101 -31 101 -4 -1
-110 -39 -237 -86z"/>
<path d="M6850 5752 c-6 -2 -10 -29 -10 -60 -1 -144 -34 -267 -71 -267 -11 0
-14 -17 -14 -80 l0 -80 35 0 c35 0 35 0 38 48 l3 47 120 0 119 0 0 -50 0 -50
35 0 c39 0 37 -5 39 110 1 49 -1 55 -19 55 -19 0 -20 8 -25 165 l-5 165 -118
0 c-64 0 -122 -1 -127 -3z m170 -196 l0 -134 -70 -1 c-38 0 -70 2 -70 5 0 3 6
29 14 57 15 54 25 119 25 175 1 32 1 32 51 32 l50 0 0 -134z"/>
<path d="M7235 5750 c-1 -3 -3 -92 -4 -199 l-2 -193 113 4 c87 3 119 8 139 21
57 38 63 127 11 166 -15 11 -21 21 -15 21 15 0 43 52 43 79 0 36 -22 70 -55
86 -31 14 -223 27 -230 15z"/>
<path d="M7630 5559 l0 -200 42 3 42 3 75 124 76 124 3 -126 3 -127 39 0 40 0
0 200 0 199 -41 -4 c-23 -3 -43 -6 -44 -7 -1 -2 -35 -58 -76 -126 l-74 -122
-3 128 -3 128 -39 1 -40 2 0 -200z"/>
<path d="M8050 5750 c0 -4 25 -46 55 -93 l56 -85 -61 -102 c-33 -56 -60 -104
-60 -106 0 -3 23 -4 51 -2 l51 3 40 78 c33 64 44 77 64 77 23 0 24 -2 24 -80
l0 -80 40 0 40 0 0 81 0 80 26 -3 c21 -2 33 -17 66 -80 l40 -78 49 0 c27 0 49
3 49 6 0 3 -25 48 -55 99 -30 52 -55 99 -55 105 0 5 23 47 51 91 28 45 48 83
45 86 -7 8 -74 11 -84 4 -5 -3 -28 -40 -51 -82 -34 -63 -45 -76 -61 -72 -18 5
-20 14 -20 82 l0 77 -37 -1 -38 0 -3 -75 c-5 -118 -26 -118 -88 1 -20 38 -42
69 -48 70 -50 5 -86 4 -86 -1z"/>
<path d="M8670 5559 l0 -199 131 0 130 0 -3 32 -3 32 -87 0 -88 -1 0 53 0 54
78 0 77 0 0 30 c1 30 1 30 -60 32 -33 0 -68 1 -77 0 -15 -2 -18 7 -18 48 l0
50 91 0 90 0 -3 31 -3 31 -127 3 -128 2 0 -198z"/>
<path d="M9030 5558 l0 -198 40 0 40 0 0 85 0 85 80 0 80 0 0 -85 0 -85 40 0
40 0 0 198 0 197 -40 0 -40 0 0 -77 c0 -43 -1 -78 -2 -78 -2 -1 -38 -4 -80 -7
l-78 -5 0 84 0 83 -40 0 -40 0 0 -197z"/>
<path d="M9468 5741 c-3 -9 -6 -98 -7 -198 l-3 -183 44 0 44 0 74 125 75 125
3 -125 3 -125 45 0 45 0 -3 197 -3 197 -30 -1 c-16 0 -35 -1 -42 -2 -6 0 -44
-55 -85 -121 -40 -66 -75 -120 -78 -120 -3 0 -5 55 -5 122 l0 122 -37 1 c-26
1 -38 -3 -40 -14z"/>
<path d="M9905 5751 c-3 -2 -5 -91 -5 -198 l0 -193 130 0 130 0 0 30 0 29 -87
3 -88 3 -3 53 -3 52 81 0 81 0 -3 33 -3 32 -75 0 -75 0 -3 48 -3 47 90 0 91 0
0 30 0 30 -92 1 c-51 1 -108 2 -126 3 -18 1 -35 0 -37 -3z"/>
<path d="M5274 5739 c-142 -17 -225 -101 -225 -226 0 -177 171 -264 385 -196
100 32 166 132 152 230 -20 145 -132 214 -312 192z m138 -108 c10 -1 32 -14
50 -29 27 -25 31 -36 31 -75 0 -25 -6 -54 -14 -63 -38 -46 -199 -77 -268 -51
-74 27 -98 113 -46 167 42 44 116 59 247 51z"/>
<path d="M5065 5108 c-2 -7 -6 -31 -7 -52 l-3 -40 103 -16 c56 -10 105 -19
108 -22 4 -5 -24 -198 -31 -205 -1 -2 -50 6 -110 17 -60 11 -109 19 -111 17
-1 -1 -5 -25 -9 -53 l-7 -52 94 -17 c51 -9 167 -29 258 -44 l165 -27 8 49 c5
27 6 51 4 54 -3 3 -49 12 -101 21 -92 16 -96 18 -96 42 0 33 26 170 34 177 3
4 50 -1 103 -11 103 -18 112 -15 113 29 0 11 3 30 6 41 5 20 0 22 -68 33 -40
6 -151 24 -246 41 -197 34 -201 34 -207 18z"/>
<path d="M9238 4963 c-3 -24 -9 -29 -41 -34 -103 -17 -160 -142 -108 -239 20
-37 88 -80 128 -80 18 0 23 -5 23 -26 0 -23 3 -25 38 -22 31 3 37 7 36 26 0
16 5 22 20 22 41 0 102 39 125 81 29 50 26 134 -6 177 -21 29 -71 58 -116 67
-15 3 -25 10 -22 14 12 21 -8 41 -40 41 -29 0 -34 -4 -37 -27z"/>
<path d="M7315 4964 c-80 -27 -115 -89 -115 -201 0 -120 76 -199 183 -190 94
8 147 81 147 201 0 148 -95 232 -215 190z m101 -77 c22 -19 28 -34 32 -80 9
-111 -18 -167 -81 -167 -51 0 -78 35 -84 108 -12 130 58 203 133 139z"/>
<path d="M8774 4970 c-83 -18 -129 -93 -127 -205 2 -99 41 -161 117 -185 115
-37 216 54 216 195 0 136 -89 220 -206 195z m90 -83 c44 -44 46 -169 5 -221
-20 -26 -58 -34 -94 -20 -29 11 -45 60 -45 134 0 66 2 74 29 101 36 35 73 38
105 6z"/>
<path d="M10023 4964 c-90 -31 -124 -124 -98 -271 12 -66 85 -123 157 -123 72
0 148 61 148 120 0 17 -6 20 -40 20 -32 0 -40 -4 -40 -18 0 -54 -93 -72 -130
-25 -19 25 -21 38 -18 116 3 79 6 91 27 108 42 34 121 14 121 -32 0 -16 7 -19
41 -19 41 0 41 0 35 32 -16 79 -112 123 -203 92z"/>
<path d="M10435 4965 c-81 -28 -122 -110 -111 -218 11 -111 71 -176 164 -177
69 0 136 48 148 108 6 32 6 32 -35 32 -33 0 -41 -3 -41 -18 0 -56 -96 -70
-133 -20 -27 36 -29 163 -4 202 33 49 111 47 130 -4 10 -26 16 -30 49 -30 45
0 49 17 18 67 -34 57 -115 82 -185 58z"/>
<path d="M11291 4970 c-74 -17 -120 -77 -128 -168 -14 -152 82 -256 205 -223
91 24 139 108 126 222 -14 124 -96 193 -203 169z m90 -89 c27 -27 29 -35 29
-101 0 -105 -23 -140 -90 -140 -36 0 -66 36 -75 91 -23 136 59 226 136 150z"/>
<path d="M13855 4970 c-93 -20 -135 -81 -135 -196 0 -52 6 -81 23 -114 42 -85
148 -112 233 -60 97 61 100 272 3 343 -33 23 -86 35 -124 27z m72 -75 c50 -35
58 -183 12 -231 -43 -46 -119 -23 -135 41 -3 14 -4 55 -2 92 4 57 8 69 32 89
31 28 62 30 93 9z"/>
<path d="M6780 4775 l0 -195 40 0 40 0 0 163 0 162 70 -1 c39 -1 73 -3 75 -5
2 -2 5 -75 6 -162 l3 -157 43 0 43 0 0 195 0 195 -160 0 -160 0 0 -195z"/>
<path d="M7820 4775 l0 -195 40 0 40 0 0 163 0 162 63 -1 c34 -1 70 -2 80 -3
15 -1 17 -16 17 -161 l0 -160 40 0 40 0 0 195 0 195 -160 0 -160 0 0 -195z"/>
<path d="M8250 4781 c2 -193 5 -208 40 -205 8 1 23 2 33 3 14 1 17 11 17 69
l0 67 65 2 c78 3 117 21 139 67 20 43 20 69 -1 113 -25 54 -76 73 -196 73
l-98 0 1 -189z"/>
<path d="M9575 4960 c-7 -11 -5 -358 2 -376 3 -8 47 -12 134 -13 l129 -2 0 36
0 35 -90 0 -90 0 0 55 0 55 75 0 75 0 0 30 0 30 -75 0 -75 0 0 48 0 47 90 -3
90 -3 0 35 0 36 -129 0 c-76 0 -132 -4 -136 -10z"/>
<path d="M10740 4775 l0 -195 43 0 42 0 75 128 75 127 3 -128 3 -127 39 0 40
0 0 195 0 195 -42 0 -43 0 -75 -128 -75 -127 -3 128 -3 127 -39 0 -40 0 0
-195z"/>
<path d="M11600 4775 l0 -195 40 0 40 0 0 79 0 79 43 3 c23 2 59 3 80 1 l37
-3 0 -80 0 -79 40 0 40 0 0 195 0 195 -40 0 -40 0 0 -80 0 -80 -80 0 -80 0 0
80 0 80 -40 0 -40 0 0 -195z"/>
<path d="M12141 4948 c-4 -13 -36 -98 -70 -189 -33 -91 -61 -170 -61 -176 0
-5 16 -9 36 -8 38 0 46 8 64 58 9 26 12 27 79 27 l69 0 14 -42 c14 -41 17 -43
56 -44 23 -1 42 1 42 4 0 3 -33 92 -72 199 l-73 193 -38 0 c-30 0 -39 -5 -46
-22z"/>
<path d="M12529 4968 c0 -2 -2 -39 -4 -83 -12 -201 -18 -228 -55 -240 -14 -4
-20 -15 -20 -36 0 -26 3 -29 33 -29 76 0 106 55 114 212 4 67 10 108 17 109 6
1 30 2 53 3 l43 1 0 -162 0 -163 40 0 40 0 0 195 0 195 -130 0 c-71 0 -130 -1
-131 -2z"/>
<path d="M12900 4790 c1 -98 4 -188 7 -200 5 -19 12 -20 97 -16 108 4 155 22
181 70 25 46 16 113 -19 143 -30 26 -85 43 -138 43 l-38 0 0 70 0 70 -45 0
-46 0 1 -180z"/>
<path d="M13290 4795 c1 -96 4 -184 7 -195 4 -16 14 -20 44 -20 36 0 39 2 38
28 -1 15 -1 52 0 82 l1 55 73 -3 c39 -2 73 -4 74 -5 1 -1 2 -29 4 -62 4 -91 6
-95 49 -95 l37 0 2 195 2 195 -46 0 -46 0 3 -77 3 -78 -81 -3 -80 -3 4 81 4
80 -47 0 -46 0 1 -175z"/>
<path d="M14150 4775 l0 -195 43 0 43 0 -4 133 c-2 72 -1 130 2 127 3 -3 25
-62 49 -130 42 -120 45 -125 74 -128 30 -3 31 -2 73 115 24 65 47 127 51 138
5 11 7 -40 5 -117 l-3 -138 43 0 44 0 0 195 0 196 -56 -3 -57 -3 -46 -132
c-25 -73 -49 -133 -53 -133 -4 0 -10 10 -14 23 -3 12 -24 73 -46 135 l-40 112
-54 0 -54 0 0 -195z"/>
<path d="M14660 4965 c0 -3 29 -64 65 -135 36 -71 65 -136 65 -143 0 -23 -24
-48 -48 -50 -18 -1 -22 -7 -22 -34 0 -28 3 -33 25 -33 34 0 72 19 89 44 11 18
79 173 139 319 l16 37 -44 0 -43 0 -33 -85 c-17 -47 -35 -85 -39 -85 -4 0 -25
38 -46 85 l-38 85 -43 0 c-24 0 -43 -2 -43 -5z"/>
<path d="M4940 4530 l-24 -51 41 -42 41 -42 -39 -84 -39 -84 -58 6 -58 6 -21
-49 c-12 -28 -18 -52 -15 -54 4 -2 59 -7 122 -11 63 -4 122 -8 130 -10 8 -2
67 -6 130 -10 63 -3 127 -8 141 -11 22 -3 28 3 48 43 l22 46 -198 199 -199
199 -24 -51z"/>
<path d="M6774 4180 c-6 -6 -4 -360 3 -376 3 -9 21 -14 45 -14 l41 0 -6 143
c-3 78 -4 138 -1 132 2 -5 26 -68 52 -140 45 -125 48 -130 76 -130 27 0 30 5
77 134 27 74 50 135 51 137 2 1 1 -60 0 -137 l-4 -139 41 0 41 0 0 198 0 197
-53 0 -52 0 -49 -138 c-27 -76 -52 -134 -56 -130 -4 4 -27 65 -51 135 l-43
126 -54 4 c-30 2 -56 1 -58 -2z"/>
<path d="M7438 4182 c-10 -2 -26 -26 -39 -60 -52 -140 -119 -322 -119 -328 0
-3 19 -4 42 -2 37 3 42 6 53 38 l12 35 73 0 73 0 12 -35 c11 -32 16 -35 53
-38 23 -2 42 0 42 5 0 4 -32 95 -71 200 -77 204 -72 197 -131 185z"/>
<path d="M7794 4176 c-69 -30 -106 -132 -86 -237 13 -72 31 -103 75 -129 40
-25 116 -26 164 -3 38 18 73 65 73 98 0 17 -6 20 -37 20 -26 -1 -38 -7 -43
-21 -10 -25 -30 -41 -55 -44 -72 -8 -94 16 -98 111 -4 86 7 125 41 143 47 24
112 -3 112 -46 0 -15 8 -18 41 -18 41 0 41 0 35 30 -17 89 -128 137 -222 96z"/>
<path d="M8117 4182 c-24 -3 -28 -7 -25 -30 3 -25 7 -27 62 -32 l59 -5 -1
-148 c-1 -81 1 -154 4 -162 4 -10 20 -15 45 -15 l39 0 0 165 0 165 60 0 c60 0
60 0 60 29 l0 30 -137 3 c-76 2 -151 2 -166 0z"/>
<path d="M8520 4182 c-6 -2 -10 -78 -10 -198 l0 -194 130 0 130 0 0 35 0 35
-90 0 -90 0 0 50 0 49 77 3 78 3 0 29 0 28 -77 1 -78 1 0 48 0 48 90 0 90 0 0
30 c0 17 -5 30 -12 30 -87 4 -230 4 -238 2z"/>
<path d="M9355 4180 c-28 -11 -72 -60 -85 -94 -6 -17 -11 -61 -11 -99 -1 -129
57 -197 166 -197 77 0 138 46 147 110 3 25 1 25 -57 21 -8 0 -21 -14 -29 -30
-26 -50 -111 -47 -135 5 -6 14 -11 58 -11 98 0 92 21 126 79 126 42 0 68 -16
73 -45 2 -16 12 -21 46 -23 42 -3 43 -2 37 20 -14 47 -42 83 -75 100 -36 19
-111 23 -145 8z"/>
<path d="M9650 4153 l0 -33 60 0 60 0 0 -165 0 -165 40 0 40 0 0 165 0 165 60
0 60 0 0 30 c0 17 -5 30 -12 30 -7 1 -79 2 -161 3 l-147 2 0 -32z"/>
<path d="M10060 3988 l0 -198 88 0 c151 0 202 29 202 116 0 43 -25 84 -50 84
-5 0 2 11 15 25 47 47 29 132 -33 157 -15 5 -71 11 -125 12 l-97 1 0 -197z"/>
<path d="M10430 4180 c-4 -3 21 -63 56 -135 35 -71 64 -137 64 -146 0 -20 -31
-49 -53 -49 -12 0 -17 -9 -17 -30 0 -28 3 -30 34 -30 58 0 80 31 159 215 69
161 72 170 53 176 -50 13 -68 -3 -100 -89 -17 -45 -33 -82 -36 -82 -3 0 -23
40 -46 88 -39 83 -42 87 -73 87 -18 0 -36 -2 -41 -5z"/>
<path d="M8870 3986 l0 -196 40 0 40 0 0 69 0 68 70 5 c81 6 116 25 137 75 19
47 10 95 -27 136 l-28 32 -116 3 -116 4 0 -196z"/>
<path d="M4665 3997 c-53 -91 -30 -144 121 -292 l112 -110 -47 -52 -46 -52
-135 115 c-74 64 -149 127 -167 140 l-32 26 -30 -34 c-17 -18 -31 -38 -31 -44
0 -9 317 -284 380 -331 14 -10 33 8 130 123 94 113 111 137 99 148 -136 121
-233 215 -250 243 -16 26 -20 44 -16 75 5 35 2 44 -21 64 -15 13 -30 24 -34
24 -4 0 -19 -20 -33 -43z"/>
<path d="M4190 3514 c-106 -70 -127 -90 -151 -136 -25 -48 -24 -91 2 -144 51
-105 156 -116 296 -29 l42 26 51 -76 c28 -41 53 -75 56 -75 10 0 84 51 84 58
-1 12 -276 426 -286 429 -5 2 -47 -22 -94 -53z m98 -140 c24 -36 42 -67 40
-68 -61 -42 -105 -66 -120 -66 -30 0 -56 18 -72 48 -21 41 -1 86 54 122 25 17
47 30 50 30 3 0 24 -30 48 -66z"/>
<path d="M3868 3304 c-21 -13 -38 -27 -38 -30 0 -8 259 -406 276 -423 11 -12
19 -11 54 12 22 15 40 30 40 32 0 3 -30 51 -67 108 -36 56 -99 153 -139 215
-41 61 -77 112 -81 111 -5 0 -25 -11 -45 -25z"/>
</g>
</svg>
