<?xml version="1.0" standalone="no"?>
<!DOCTYPE svg PUBLIC "-//W3C//DTD SVG 20010904//EN"
 "http://www.w3.org/TR/2001/REC-SVG-20010904/DTD/svg10.dtd">
<svg version="1.0" xmlns="http://www.w3.org/2000/svg"
 width="1535.000000pt" height="576.000000pt" viewBox="0 0 1535.000000 576.000000"
 preserveAspectRatio="xMidYMid meet">
<metadata>
Created by potrace 1.16, written by Peter Selinger 2001-2019
</metadata>
<g transform="translate(0.000000,576.000000) scale(0.100000,-0.100000)"
fill="#000000" stroke="none">
<path d="M2605 5632 c-95 -46 -142 -140 -132 -266 13 -176 103 -266 250 -253
78 7 133 44 167 112 21 43 25 64 25 145 0 86 -3 101 -30 155 -41 82 -93 118
-178 122 -46 3 -72 -1 -102 -15z m155 -100 c34 -35 50 -87 50 -170 0 -108 -37
-162 -113 -162 -30 0 -45 7 -67 30 -72 77 -65 281 12 317 43 21 87 15 118 -15z"/>
<path d="M3395 5580 c-6 -29 -8 -30 -63 -30 -145 0 -247 -133 -211 -276 15
-57 76 -125 129 -140 32 -9 35 -13 32 -46 -2 -34 -1 -36 33 -42 20 -4 42 -9
49 -12 8 -3 16 7 22 26 9 31 10 32 76 33 56 2 73 7 109 32 114 80 126 259 22
344 -21 17 -52 36 -71 42 -30 10 -32 13 -26 43 6 32 5 33 -40 45 -24 6 -47 11
-50 11 -2 0 -7 -13 -11 -30z m-47 -207 c-27 -126 -38 -163 -46 -163 -4 0 -21
9 -39 20 -37 22 -55 72 -44 122 17 73 53 108 112 108 l37 0 -20 -87z m177 35
c62 -54 42 -191 -31 -218 -38 -15 -74 -12 -74 5 0 15 36 183 46 218 7 23 28
21 59 -5z"/>
<path d="M1935 5495 c-60 -20 -111 -37 -113 -39 -3 -4 148 -485 155 -495 4 -5
94 17 101 24 2 2 -8 39 -22 82 -14 43 -26 83 -26 89 0 5 32 20 71 33 119 38
177 114 157 205 -18 83 -71 128 -155 133 -45 2 -83 -5 -168 -32z m190 -80 c28
-27 35 -94 11 -114 -21 -18 -129 -52 -137 -44 -9 10 -52 143 -48 147 2 2 24
10 49 19 66 23 97 21 125 -8z"/>
<path d="M3846 5179 c-65 -127 -114 -234 -110 -239 5 -4 75 -42 156 -84 l147
-77 20 38 19 39 -109 58 -109 58 32 59 c18 32 36 59 39 59 4 0 45 -20 92 -45
90 -48 95 -48 115 5 9 24 4 28 -79 73 -49 26 -89 50 -89 53 0 10 51 104 56
104 3 0 53 -25 110 -55 l103 -55 21 39 20 40 -154 80 c-84 45 -155 81 -157 81
-2 0 -57 -104 -123 -231z"/>
<path d="M1367 5218 c-97 -62 -177 -117 -177 -121 0 -8 255 -414 271 -431 4
-5 27 4 52 20 l45 28 -48 75 c-26 42 -79 125 -118 185 l-71 109 84 54 c47 29
88 53 92 53 5 0 58 -77 118 -172 61 -94 113 -175 116 -180 3 -6 27 3 52 19
l46 28 -125 195 c-69 107 -133 207 -143 223 l-17 27 -177 -112z"/>
<path d="M4472 5028 c-57 -10 -101 -38 -158 -101 -85 -94 -115 -198 -81 -280
32 -75 149 -145 228 -134 35 5 109 43 109 57 0 3 -18 20 -40 38 -38 31 -41 32
-62 18 -36 -25 -82 -20 -117 13 -30 28 -36 44 -31 86 6 55 90 162 154 196 52
27 87 21 128 -23 30 -32 35 -62 16 -103 -10 -23 -8 -28 28 -59 l39 -35 22 47
c13 26 23 56 23 67 0 64 -44 138 -110 185 -37 26 -96 38 -148 28z"/>
<path d="M7267 4926 c-81 -30 -112 -92 -105 -210 8 -125 72 -190 176 -180 77
8 122 42 137 107 7 26 6 27 -33 27 -32 0 -42 -4 -47 -20 -10 -32 -34 -50 -66
-50 -63 0 -89 39 -89 135 0 96 26 135 89 135 32 0 56 -18 66 -50 5 -16 15 -20
47 -20 38 0 40 1 34 26 -22 86 -120 133 -209 100z"/>
<path d="M8419 4917 c-62 -32 -89 -88 -89 -182 0 -97 27 -151 92 -183 64 -32
125 -23 179 25 44 39 59 82 59 163 0 83 -35 151 -92 179 -57 27 -94 27 -149
-2z m113 -58 c42 -22 60 -112 38 -191 -19 -68 -86 -90 -131 -42 -21 23 -24 35
-24 109 0 74 3 86 24 109 26 28 59 33 93 15z"/>
<path d="M8863 4929 c-78 -23 -122 -116 -109 -227 9 -76 40 -127 93 -153 71
-34 165 -10 203 54 32 51 27 67 -20 67 -29 0 -40 -4 -40 -15 0 -8 -9 -24 -20
-35 -28 -28 -81 -26 -109 4 -20 21 -24 36 -25 105 -1 66 3 84 20 108 36 48
117 41 130 -12 5 -21 12 -25 45 -25 46 0 50 16 19 67 -33 55 -119 83 -187 62z"/>
<path d="M9267 4926 c-81 -30 -112 -92 -105 -210 8 -125 72 -190 176 -180 77
8 122 42 137 107 7 26 6 27 -34 27 -35 0 -41 -3 -47 -25 -10 -41 -69 -59 -114
-35 -53 28 -53 222 0 250 45 24 104 6 114 -35 6 -22 12 -25 47 -25 40 0 41 1
34 28 -21 85 -118 131 -208 98z"/>
<path d="M10540 4929 c-62 -26 -97 -81 -106 -166 -16 -153 77 -254 206 -223
55 13 97 51 106 98 6 32 6 32 -34 32 -34 0 -41 -4 -46 -25 -13 -51 -94 -60
-128 -14 -29 38 -29 169 -1 207 35 47 116 39 129 -13 5 -21 12 -25 45 -25 30
0 39 4 39 18 0 24 -35 78 -62 96 -30 20 -116 28 -148 15z"/>
<path d="M11324 4921 c-52 -24 -81 -65 -96 -136 -31 -156 75 -284 204 -245 89
26 136 111 124 223 -9 91 -49 148 -117 167 -48 14 -68 12 -115 -9z m115 -68
c36 -31 48 -151 19 -210 -15 -32 -54 -49 -91 -39 -48 12 -72 93 -56 183 10 55
37 83 79 83 15 0 37 -8 49 -17z"/>
<path d="M6770 4735 l2 -195 99 0 c120 0 162 14 185 63 22 45 12 101 -20 123
l-24 15 24 24 c28 28 32 79 8 113 -28 41 -66 52 -174 52 l-101 0 1 -195z"/>
<path d="M7580 4735 l0 -195 130 0 130 0 0 36 0 35 -90 -3 -90 -3 0 53 0 52
75 0 75 0 0 30 0 30 -75 0 -75 0 0 50 0 50 90 0 90 0 0 30 0 30 -130 0 -130 0
0 -195z"/>
<path d="M7940 4735 l0 -195 40 0 40 0 0 68 0 68 33 -1 c141 -4 220 81 170
182 -27 57 -68 73 -185 73 l-98 0 0 -195z m199 110 c16 -16 17 -73 2 -88 -6
-6 -35 -12 -66 -15 l-55 -4 0 59 c0 33 3 62 6 65 10 11 99 -3 113 -17z"/>
<path d="M9570 4735 l2 -195 43 0 43 0 73 120 c40 67 75 123 79 125 3 2 5 -52
4 -121 l-2 -124 44 0 44 0 0 195 0 195 -43 0 -43 0 -74 -124 -75 -123 -3 123
-3 124 -45 0 -45 0 1 -195z"/>
<path d="M10010 4735 l0 -195 43 0 42 0 75 128 75 127 3 -128 3 -127 39 0 40
0 0 195 0 195 -42 0 -43 0 -75 -128 -75 -127 -3 128 -3 127 -39 0 -40 0 0
-195z"/>
<path d="M10850 4735 l0 -195 40 0 40 0 0 80 c0 78 1 80 24 80 19 0 34 -16 75
-80 l51 -80 45 0 c25 0 45 3 45 6 0 3 -13 24 -28 47 -16 23 -45 67 -64 97
l-35 56 49 74 c78 119 76 110 19 110 l-49 0 -41 -70 c-40 -66 -71 -97 -85 -83
-3 3 -6 39 -6 80 l0 73 -40 0 -40 0 0 -195z"/>
<path d="M11660 4735 l0 -195 130 0 130 0 0 36 0 36 -90 -4 -90 -3 0 53 0 52
80 0 80 0 0 30 0 30 -80 0 -80 0 0 50 0 50 90 0 90 0 0 30 0 30 -130 0 -130 0
0 -195z"/>
<path d="M823 4807 c-520 -545 -791 -1243 -769 -1982 18 -602 198 -1116 560
-1600 116 -155 382 -422 536 -537 740 -553 1644 -713 2540 -447 58 17 108 33
112 37 6 6 -182 545 -195 558 -3 3 -47 -8 -99 -25 -349 -111 -785 -127 -1154
-41 -508 119 -955 409 -1267 822 -193 256 -331 559 -392 863 -142 700 60 1413
542 1915 l93 97 -203 216 c-111 118 -205 216 -208 216 -4 1 -47 -41 -96 -92z"/>
<path d="M4889 4555 c-94 -18 -214 -109 -250 -189 -26 -57 -24 -112 7 -174 48
-98 141 -147 229 -122 25 7 47 16 50 19 2 4 -8 26 -23 49 -18 28 -32 40 -42
36 -46 -17 -67 -15 -97 10 -87 73 -58 151 91 240 96 58 169 43 196 -39 10 -30
9 -40 -11 -74 l-22 -39 31 -42 30 -42 31 42 c52 72 54 145 6 226 -29 49 -85
92 -137 103 -18 4 -58 3 -89 -4z"/>
<path d="M6780 4070 c0 -134 34 -170 160 -170 l70 0 0 -69 c0 -72 7 -83 46
-76 11 2 22 4 27 4 4 1 7 89 7 196 l0 195 -40 0 -40 0 0 -89 c0 -84 -1 -89
-22 -95 -40 -10 -83 -6 -106 10 -20 13 -22 24 -22 95 l0 79 -40 0 -40 0 0 -80z"/>
<path d="M7212 3953 l3 -197 103 -4 c133 -5 152 0 152 38 l0 30 -90 0 -90 0 0
50 c0 56 -4 54 88 51 l62 -3 0 36 0 36 -75 0 -75 0 0 45 0 45 90 0 90 0 0 35
0 35 -130 0 -130 0 2 -197z"/>
<path d="M7570 3956 c0 -212 -1 -208 59 -197 l24 4 -7 135 c-4 75 -5 134 -2
131 2 -2 25 -62 51 -134 25 -71 48 -131 49 -133 10 -10 46 -9 55 2 6 7 28 63
51 125 22 62 43 119 48 126 4 8 7 -48 7 -123 l0 -137 25 -1 c50 -3 50 -4 50
202 l0 194 -53 0 -53 0 -48 -140 c-27 -78 -51 -139 -53 -136 -3 3 -27 65 -53
138 l-47 133 -51 3 -52 3 0 -195z"/>
<path d="M8102 3953 l3 -198 35 0 35 0 3 163 2 162 74 0 c90 0 86 8 83 -182
-2 -149 -2 -149 53 -145 l25 2 3 198 2 197 -160 0 -160 0 2 -197z"/>
<path d="M8532 3953 l3 -197 30 -2 c17 -1 35 1 42 3 7 3 45 61 85 129 l73 124
3 -124 c3 -133 5 -138 55 -129 l27 5 0 194 0 194 -39 0 -40 0 -78 -130 -78
-130 -3 130 -3 130 -40 0 -39 0 2 -197z"/>
<path d="M9040 4132 c-56 -30 -85 -92 -84 -182 0 -92 26 -146 86 -180 57 -32
136 -25 179 16 50 47 63 81 63 164 1 62 -3 82 -24 119 -30 53 -78 81 -140 81
-25 0 -61 -8 -80 -18z m131 -71 c17 -18 29 -41 30 -58 5 -141 -11 -178 -81
-178 -68 0 -87 41 -81 178 1 34 50 87 81 87 12 0 35 -13 51 -29z"/>
<path d="M9390 3956 l0 -194 27 -5 c48 -9 53 -1 53 84 l0 79 80 0 80 0 0 -79
c0 -75 1 -79 24 -85 55 -14 56 -10 56 200 l0 194 -40 0 -40 0 0 -80 0 -80 -80
0 -80 0 0 80 0 80 -40 0 -40 0 0 -194z"/>
<path d="M9872 3959 c-40 -106 -69 -195 -66 -200 3 -5 15 -7 27 -5 12 3 29 5
38 5 9 1 20 16 27 39 l11 37 71 0 70 0 13 -40 c13 -37 16 -40 55 -43 23 -2 42
0 42 5 0 4 -32 95 -72 201 l-71 192 -37 0 -37 0 -71 -191z"/>
<path d="M10180 4115 l0 -35 60 0 60 0 2 -162 3 -163 35 0 35 0 3 163 2 162
60 0 60 0 0 35 0 35 -160 0 -160 0 0 -35z"/>
<path d="M10590 3956 l0 -194 24 -6 c48 -12 56 0 56 85 l0 79 80 0 80 0 0 -79
c0 -75 1 -79 24 -85 55 -14 56 -10 56 200 l0 194 -40 0 -40 0 0 -80 0 -80 -80
0 -80 0 0 80 0 80 -40 0 -40 0 0 -194z"/>
<path d="M11104 4136 c-86 -38 -122 -190 -70 -299 48 -100 190 -117 265 -32
31 36 53 113 46 161 -3 16 -7 43 -10 61 -7 38 -46 88 -86 108 -35 18 -104 19
-145 1z m131 -77 c17 -17 20 -33 20 -108 0 -73 -3 -93 -19 -110 -28 -31 -86
-28 -117 5 -21 22 -24 35 -24 98 0 83 15 121 54 135 32 11 60 5 86 -20z"/>
<path d="M11452 3953 l3 -197 103 -4 c133 -5 152 0 152 38 l0 30 -90 0 -90 0
0 50 c0 56 -3 54 86 51 64 -2 76 5 70 45 -2 16 -14 19 -79 22 l-77 3 0 44 0
45 90 0 90 0 0 35 0 35 -130 0 -130 0 2 -197z"/>
<path d="M5105 3964 c-126 -46 -235 -86 -242 -89 -16 -5 15 -93 37 -105 8 -4
95 -22 193 -41 97 -18 177 -36 177 -40 0 -3 -35 -19 -77 -34 -43 -16 -112 -41
-154 -57 l-77 -29 18 -47 c10 -26 24 -47 32 -46 19 2 462 165 472 175 5 4 1
28 -10 55 l-20 47 -184 35 c-102 19 -188 37 -192 41 -4 4 59 31 140 60 81 30
151 57 156 62 8 7 -22 99 -33 99 -3 -1 -109 -39 -236 -86z"/>
<path d="M6851 3360 c-5 -3 -11 -52 -14 -110 -9 -142 -25 -196 -64 -211 -23
-8 -24 -12 -21 -85 3 -68 5 -78 23 -80 42 -7 55 5 55 52 l0 44 120 0 120 0 0
-50 0 -50 35 0 c29 0 35 4 36 23 0 12 2 48 5 80 4 37 2 57 -5 58 -6 1 -17 2
-23 3 -10 1 -14 42 -16 164 -2 145 -4 162 -20 163 -103 3 -225 3 -231 -1z
m169 -189 c0 -146 5 -138 -87 -140 -29 -1 -53 2 -53 7 0 5 7 28 14 50 8 23 18
80 22 127 l7 85 48 0 49 0 0 -129z"/>
<path d="M7257 3361 c-25 -8 -27 -29 -26 -210 l2 -183 111 4 c85 3 117 8 137
21 57 38 63 127 11 166 -15 11 -21 21 -15 21 17 0 43 53 43 84 0 14 -13 40
-29 58 -28 31 -32 32 -125 38 -53 3 -102 3 -109 1z"/>
<path d="M7630 3167 l0 -198 42 3 42 3 75 125 76 125 3 -127 3 -128 40 0 39 0
-2 197 -3 196 -31 3 c-17 1 -35 -1 -40 -4 -6 -4 -44 -62 -85 -130 l-74 -122
-5 126 -5 127 -37 2 -38 1 0 -199z"/>
<path d="M8050 3358 c0 -5 25 -46 56 -92 l55 -84 -60 -102 c-34 -56 -61 -104
-61 -106 0 -3 23 -4 51 -2 l51 3 40 78 c33 64 44 77 64 77 23 0 24 -2 24 -80
l0 -80 40 0 40 0 0 81 0 80 26 -3 c21 -2 34 -17 67 -80 l40 -78 49 0 c26 0 48
3 48 6 0 3 -25 48 -55 99 -30 52 -55 99 -55 106 0 7 23 48 51 92 32 49 47 82
41 86 -6 4 -28 5 -49 3 -37 -4 -41 -7 -81 -82 -30 -56 -47 -77 -60 -76 -14 2
-18 16 -20 77 -3 78 -10 89 -51 85 -25 -3 -26 -6 -29 -77 -5 -117 -26 -116
-88 2 -20 38 -39 69 -43 70 -31 5 -91 3 -91 -3z"/>
<path d="M8670 3169 l0 -199 130 0 130 0 0 30 c0 17 -5 30 -12 31 -7 0 -42 1
-77 1 -88 0 -91 2 -91 59 l0 49 78 0 79 0 1 30 1 30 -62 1 c-34 1 -70 1 -79 0
-15 -2 -18 6 -18 48 l0 51 91 0 90 0 -3 31 -3 31 -127 2 -128 3 0 -198z"/>
<path d="M9030 3169 l0 -199 40 0 40 0 0 85 0 85 80 0 80 0 0 -85 0 -85 40 0
40 0 0 198 0 198 -37 -1 -38 0 -3 -75 c-2 -41 -7 -77 -12 -80 -5 -3 -41 -7
-80 -8 l-70 -3 0 83 0 83 -40 1 -40 2 0 -199z"/>
<path d="M9494 3362 c-19 -3 -22 -12 -28 -70 -4 -37 -6 -124 -5 -194 l1 -128
42 0 42 0 74 125 75 125 3 -125 3 -125 42 0 43 0 3 194 2 193 -23 4 c-55 10
-65 1 -140 -122 -39 -65 -75 -119 -78 -119 -3 0 -4 53 -2 119 4 128 2 132 -54
123z"/>
<path d="M5274 3349 c-142 -17 -225 -101 -225 -226 0 -177 171 -264 385 -196
101 32 167 136 151 235 -24 143 -133 209 -311 187z m128 -108 c15 -1 42 -14
60 -29 27 -25 31 -36 31 -75 0 -25 -6 -54 -14 -63 -38 -46 -199 -77 -268 -51
-74 27 -98 113 -46 167 33 34 117 59 185 54 14 -1 37 -2 52 -3z"/>
<path d="M9900 3165 l0 -195 130 0 130 0 0 30 0 29 -87 3 -88 3 -3 53 -3 52
81 0 81 0 -3 33 -3 32 -77 -3 -78 -4 0 51 0 51 90 0 90 0 0 30 0 30 -130 0
-130 0 0 -195z"/>
<path d="M5065 2718 c-2 -7 -6 -31 -7 -52 l-3 -40 103 -16 c56 -10 105 -19
108 -22 4 -5 -24 -199 -30 -205 -2 -2 -51 6 -111 17 -60 11 -109 19 -111 17
-1 -1 -5 -25 -9 -53 l-7 -52 94 -16 c51 -10 167 -30 258 -45 l165 -28 8 49 c5
27 6 52 4 55 -3 3 -49 12 -101 21 -92 16 -96 18 -96 42 0 32 26 169 34 177 5
5 127 -11 182 -24 19 -4 23 2 33 48 6 28 10 53 9 54 -2 2 -34 8 -73 14 -38 6
-148 24 -243 41 -197 34 -201 34 -207 18z"/>
<path d="M9238 2573 c-3 -24 -9 -29 -41 -34 -103 -17 -160 -142 -108 -239 20
-37 88 -80 128 -80 18 0 23 -5 23 -25 0 -22 4 -25 34 -25 33 0 53 20 40 41 -3
5 5 9 17 9 44 0 104 38 128 81 19 33 22 52 19 94 -7 84 -50 130 -140 149 -16
4 -27 10 -27 14 5 32 -3 42 -35 42 -30 0 -35 -3 -38 -27z"/>
<path d="M7320 2578 c-75 -20 -119 -93 -120 -199 0 -126 74 -206 183 -196 94
8 147 81 147 201 0 145 -87 226 -210 194z m97 -82 c24 -21 28 -32 31 -93 7
-113 -25 -162 -99 -151 -38 5 -69 62 -69 125 0 121 67 179 137 119z"/>
<path d="M8771 2578 c-52 -14 -78 -36 -102 -86 -42 -86 -24 -220 37 -273 51
-45 140 -48 200 -7 97 66 98 272 3 341 -35 25 -95 36 -138 25z m93 -81 c44
-44 46 -169 5 -221 -20 -26 -58 -34 -94 -20 -29 11 -45 60 -45 134 0 66 2 74
29 101 36 35 73 38 105 6z"/>
<path d="M10025 2574 c-74 -25 -107 -81 -108 -183 -1 -108 33 -173 106 -200
89 -34 207 28 207 109 0 16 -6 20 -35 20 -25 0 -38 -5 -42 -17 -21 -60 -95
-74 -133 -26 -19 25 -21 38 -18 116 3 79 6 91 27 108 42 34 121 14 121 -32 0
-16 7 -19 41 -19 41 0 41 0 35 32 -15 76 -115 122 -201 92z"/>
<path d="M10438 2577 c-77 -18 -125 -111 -114 -220 11 -111 71 -176 164 -177
69 0 136 48 148 108 6 32 6 32 -35 32 -33 0 -41 -3 -41 -18 0 -56 -96 -70
-133 -20 -26 35 -28 164 -3 203 32 48 110 45 129 -5 10 -26 16 -30 49 -30 30
0 38 4 38 18 0 25 -36 79 -62 93 -34 19 -98 26 -140 16z"/>
<path d="M11291 2580 c-74 -17 -120 -77 -128 -168 -7 -79 11 -138 56 -183 92
-93 242 -42 270 92 35 161 -63 289 -198 259z m90 -89 c27 -27 29 -35 29 -101
0 -104 -23 -140 -89 -140 -55 0 -88 73 -76 168 12 97 77 132 136 73z"/>
<path d="M13847 2578 c-87 -18 -127 -80 -127 -194 0 -94 28 -150 90 -182 35
-18 55 -22 89 -18 98 13 151 82 151 197 0 137 -87 222 -203 197z m88 -82 c61
-61 37 -234 -35 -244 -73 -11 -104 34 -98 146 3 66 6 77 31 98 36 30 71 31
102 0z"/>
<path d="M6780 2385 l0 -195 40 0 40 0 0 163 0 162 71 -2 c39 0 72 -3 74 -5 2
-2 5 -74 6 -161 l2 -157 43 0 44 0 0 195 0 195 -160 0 -160 0 0 -195z"/>
<path d="M7820 2385 l0 -195 40 0 40 0 0 163 0 162 63 -2 c34 0 70 -2 80 -2
15 -1 17 -16 17 -161 l0 -160 40 0 40 0 0 195 0 195 -160 0 -160 0 0 -195z"/>
<path d="M8256 2402 c0 -97 1 -184 2 -193 2 -19 33 -30 62 -22 17 5 20 14 20
69 0 44 4 64 13 65 6 1 35 3 64 5 66 3 106 25 127 68 20 43 20 69 -1 113 -25
53 -76 73 -193 73 l-95 0 1 -178z"/>
<path d="M9574 2556 c-3 -12 -4 -101 -2 -197 l3 -174 133 -3 132 -3 0 36 0 35
-90 0 -90 0 0 55 0 55 75 0 75 0 0 30 0 30 -75 0 -75 0 0 51 c0 33 4 48 11 44
5 -4 46 -4 90 0 79 7 79 7 79 36 l0 29 -130 0 c-128 0 -130 0 -136 -24z"/>
<path d="M10740 2385 l0 -195 43 0 42 0 75 128 75 127 3 -128 3 -127 39 0 40
0 0 195 0 195 -42 -1 -43 0 -75 -127 -75 -127 -3 128 -3 127 -39 0 -40 0 0
-195z"/>
<path d="M11600 2385 l0 -195 40 0 40 0 0 80 0 80 43 2 c23 1 58 2 77 2 l35 0
3 -82 3 -82 39 0 40 0 0 195 0 195 -40 0 -40 0 0 -80 0 -80 -80 0 -80 0 0 80
0 80 -40 0 -40 0 0 -195z"/>
<path d="M12141 2558 c-4 -13 -36 -99 -70 -191 -35 -93 -61 -171 -58 -173 3
-3 20 -6 37 -7 34 -2 42 5 60 56 9 26 12 27 79 27 l70 0 12 -40 c7 -22 19 -41
28 -44 28 -6 71 -6 71 1 0 3 -33 93 -72 200 l-73 193 -38 0 c-30 0 -39 -5 -46
-22z"/>
<path d="M12528 2563 c-2 -10 -5 -58 -7 -108 -3 -145 -15 -188 -51 -200 -14
-4 -20 -15 -20 -36 0 -26 3 -29 34 -29 42 0 81 30 96 75 6 20 15 84 18 143 l7
107 52 0 53 0 0 -162 0 -163 40 0 40 0 0 195 0 195 -129 0 c-114 0 -129 -2
-133 -17z"/>
<path d="M12901 2391 c1 -104 5 -194 9 -201 11 -18 180 -6 225 15 46 22 70 71
62 126 -9 69 -72 109 -169 109 l-38 0 0 70 0 70 -45 0 -46 0 2 -189z"/>
<path d="M13296 2402 c1 -233 -3 -212 42 -212 l39 0 -1 82 -1 82 77 1 78 0 1
-57 c1 -32 3 -62 4 -68 1 -5 3 -17 4 -25 1 -10 12 -15 39 -15 l38 0 2 195 2
195 -43 0 -42 0 0 -77 0 -78 -81 -3 -80 -3 2 81 3 80 -42 0 -42 0 1 -178z"/>
<path d="M14150 2385 l0 -195 44 0 43 0 -4 133 c-3 72 -3 130 0 127 3 -3 26
-62 50 -130 42 -120 45 -125 74 -128 30 -3 31 -2 73 115 24 65 47 127 51 138
5 11 7 -42 4 -117 l-4 -138 45 0 44 0 0 195 0 196 -56 -3 -57 -3 -46 -132
c-25 -73 -49 -133 -53 -133 -4 0 -10 10 -14 23 -3 12 -24 73 -46 135 l-40 112
-54 0 -54 0 0 -195z"/>
<path d="M14660 2575 c0 -3 30 -65 67 -139 60 -121 66 -137 55 -160 -8 -18
-19 -26 -37 -26 -22 0 -25 -4 -25 -35 0 -30 3 -35 25 -35 34 0 72 19 89 44 11
18 79 173 139 319 l16 37 -44 0 -43 0 -33 -85 c-17 -47 -35 -85 -39 -85 -4 0
-25 38 -46 85 l-38 85 -43 0 c-24 0 -43 -2 -43 -5z"/>
<path d="M4940 2140 l-24 -51 41 -42 41 -42 -39 -84 -39 -84 -58 7 -58 7 -21
-51 c-12 -27 -18 -52 -15 -54 4 -2 52 -7 107 -10 55 -4 120 -9 145 -11 25 -2
86 -7 135 -10 50 -3 106 -8 125 -11 34 -5 36 -3 58 42 l23 47 -198 199 -199
199 -24 -51z"/>
<path d="M6777 1794 c-9 -9 -9 -356 -1 -378 4 -11 19 -16 47 -16 l40 0 -6 143
c-3 78 -4 138 -1 132 2 -5 26 -68 52 -140 45 -125 48 -130 76 -130 27 0 30 5
77 134 27 74 50 135 51 137 2 1 1 -60 0 -137 l-4 -139 41 0 41 0 0 198 0 198
-47 -2 c-27 -1 -51 -2 -54 -3 -4 -1 -28 -62 -54 -137 -27 -74 -51 -131 -55
-127 -4 4 -27 65 -51 136 l-44 127 -37 0 c-20 0 -43 2 -50 5 -8 3 -17 2 -21
-1z"/>
<path d="M7438 1792 c-10 -2 -27 -30 -42 -70 -97 -255 -116 -308 -116 -315 0
-5 19 -7 42 -5 37 3 42 6 53 38 l12 35 73 0 73 0 12 -35 c11 -32 16 -35 53
-38 23 -2 42 1 42 6 0 12 -126 351 -138 372 -9 15 -32 19 -64 12z"/>
<path d="M7792 1783 c-70 -34 -106 -136 -84 -239 20 -99 69 -144 155 -144 85
0 157 54 157 117 0 22 -2 22 -72 14 -5 -1 -8 -7 -8 -14 0 -47 -100 -67 -132
-27 -18 23 -21 37 -20 123 0 71 9 95 41 111 45 24 111 -4 111 -46 0 -15 8 -18
41 -18 41 0 41 0 35 30 -18 91 -132 138 -224 93z"/>
<path d="M8118 1792 c-22 -3 -27 -8 -25 -30 2 -25 5 -27 61 -32 l60 -5 -3
-142 c-3 -177 -1 -183 50 -183 l39 0 0 165 0 165 60 0 c60 0 60 0 60 29 l0 30
-137 3 c-76 2 -150 2 -165 0z"/>
<path d="M8527 1792 c-15 -3 -17 -23 -17 -198 l0 -194 130 0 130 0 0 35 0 35
-90 0 -90 0 0 50 0 49 77 3 78 3 0 29 0 28 -77 0 -78 1 0 48 0 49 91 0 90 0
-3 32 -3 31 -111 1 c-60 1 -118 0 -127 -2z"/>
<path d="M8870 1598 l0 -198 40 0 40 0 0 69 0 68 71 5 c84 6 118 27 138 85 17
49 10 83 -28 126 -29 32 -30 32 -145 37 l-116 5 0 -197z"/>
<path d="M9355 1790 c-28 -11 -72 -60 -85 -94 -6 -17 -11 -61 -11 -99 -1 -129
57 -197 166 -197 77 0 138 46 147 110 3 25 -1 27 -59 21 -7 0 -19 -14 -27 -30
-27 -51 -110 -48 -135 6 -6 13 -11 57 -11 98 0 63 3 78 23 101 19 22 32 27 62
26 43 -2 63 -15 67 -45 2 -17 11 -23 37 -25 18 -2 37 0 42 5 16 16 -34 97 -71
115 -36 19 -111 23 -145 8z"/>
<path d="M9650 1763 l0 -33 60 0 60 0 0 -165 0 -165 40 0 40 0 0 165 0 165 61
0 60 0 -3 31 -3 32 -157 1 -158 1 0 -32z"/>
<path d="M10060 1598 l0 -198 88 0 c106 0 155 13 182 47 28 36 27 105 -2 133
-12 11 -25 20 -29 20 -5 0 3 11 16 25 47 47 29 132 -33 156 -15 6 -71 11 -125
12 l-97 2 0 -197z"/>
<path d="M10420 1793 c0 -1 29 -63 65 -137 36 -74 65 -141 65 -149 0 -18 -32
-47 -53 -47 -12 0 -17 -9 -17 -30 0 -28 3 -30 34 -30 58 0 80 31 159 215 69
161 72 170 53 176 -50 13 -68 -3 -100 -89 -17 -45 -33 -82 -36 -82 -3 0 -23
40 -46 88 l-40 87 -42 0 c-23 1 -42 0 -42 -2z"/>
<path d="M4665 1607 c-53 -91 -30 -144 121 -292 l112 -110 -46 -52 -47 -52
-135 115 c-74 63 -149 127 -167 140 l-32 26 -30 -34 c-17 -18 -31 -38 -31 -44
0 -9 317 -284 380 -331 14 -10 33 8 130 123 94 113 111 137 99 148 -136 121
-233 215 -250 243 -16 26 -20 44 -16 75 5 35 2 44 -21 64 -15 13 -30 24 -34
24 -4 0 -19 -20 -33 -43z"/>
<path d="M4190 1124 c-106 -70 -127 -90 -151 -136 -54 -105 22 -231 140 -231
48 0 88 14 158 58 l42 26 51 -76 c28 -41 54 -75 57 -75 11 0 83 52 82 59 -1
13 -275 425 -284 428 -6 2 -48 -22 -95 -53z m98 -140 c24 -36 42 -67 40 -68
-63 -43 -106 -66 -122 -66 -53 0 -93 63 -72 113 9 23 88 87 106 87 3 0 24 -30
48 -66z"/>
<path d="M3868 914 c-21 -13 -38 -27 -38 -30 0 -8 259 -406 276 -423 11 -12
19 -11 54 12 22 15 40 30 40 32 0 3 -30 51 -67 108 -36 56 -99 153 -139 215
-41 61 -77 112 -81 111 -5 0 -25 -11 -45 -25z"/>
</g>
</svg>
